M48
; DRILL file {KiCad (5.1.10-1-10_14)} date Sunday, June 13, 2021 at 09:07:57 PM
; FORMAT={-:-/ absolute / metric / decimal}
; #@! TF.CreationDate,2021-06-13T21:07:57+02:00
; #@! TF.GenerationSoftware,Kicad,Pcbnew,(5.1.10-1-10_14)
; #@! TF.FileFunction,Plated,1,2,PTH
FMAT,2
METRIC
T1C0.550
T2C0.730
T3C0.800
T4C0.900
T5C1.000
T6C1.090
%
G90
G05
T1
X174.372Y-111.078
X175.642Y-111.078
X176.912Y-111.078
T2
X168.779Y-115.94
X171.319Y-113.4
X173.859Y-115.94
T3
X126.457Y-99.148
X126.457Y-106.768
X130.09Y-99.198
X130.09Y-106.818
X133.674Y-99.148
X133.674Y-106.768
X137.316Y-98.508
X137.316Y-106.128
X141.271Y-98.508
X141.271Y-106.128
X145.02Y-98.508
X145.02Y-106.128
X148.319Y-99.056
X148.319Y-106.676
X152.142Y-98.944
X152.142Y-106.564
X156.13Y-99.043
X156.13Y-106.663
X159.914Y-98.993
X159.914Y-106.613
X164.032Y-98.647
X164.032Y-106.267
X168.126Y-98.576
X168.126Y-106.196
X171.875Y-98.576
X171.875Y-106.196
X175.482Y-98.647
X175.482Y-106.267
X179.16Y-99.061
X179.16Y-106.681
T4
X119.587Y-109.775
X122.127Y-109.775
X126.112Y-109.808
X128.652Y-109.808
X131.192Y-109.808
X133.732Y-109.808
X136.272Y-109.808
X138.812Y-109.808
X141.352Y-109.808
X143.892Y-109.808
X146.432Y-109.808
X148.972Y-109.808
X151.512Y-109.808
X154.052Y-109.808
X156.592Y-109.808
X159.132Y-109.808
X161.672Y-109.808
X164.212Y-109.808
X166.752Y-109.808
X169.292Y-109.808
T5
X126.003Y-93.108
X126.003Y-95.647
X128.543Y-93.108
X128.543Y-95.647
X131.083Y-93.108
X131.083Y-95.647
X133.623Y-93.108
X133.623Y-95.647
X136.163Y-93.108
X136.163Y-95.647
X138.703Y-93.108
X138.703Y-95.647
X141.243Y-93.108
X141.243Y-95.647
X143.783Y-93.108
X143.783Y-95.647
X146.323Y-93.108
X146.323Y-95.647
X148.863Y-93.108
X148.863Y-95.647
X151.403Y-93.108
X151.403Y-95.647
X153.943Y-93.108
X153.943Y-95.647
X156.483Y-93.108
X156.483Y-95.647
X159.023Y-93.108
X159.023Y-95.647
X161.563Y-93.108
X161.563Y-95.647
X164.103Y-93.108
X164.103Y-95.647
X166.643Y-93.108
X166.643Y-95.647
X169.183Y-93.108
X169.183Y-95.647
X171.723Y-93.108
X171.723Y-95.647
X174.263Y-93.108
X174.263Y-95.647
T6
X119.652Y-101.478
X122.302Y-104.728
T0
M30
