G04 #@! TF.GenerationSoftware,KiCad,Pcbnew,(5.1.10-1-10_14)*
G04 #@! TF.CreationDate,2021-06-13T21:08:41+02:00*
G04 #@! TF.ProjectId,led_status_pcb_design,6c65645f-7374-4617-9475-735f7063625f,1.0*
G04 #@! TF.SameCoordinates,Original*
G04 #@! TF.FileFunction,Copper,L2,Bot*
G04 #@! TF.FilePolarity,Positive*
%FSLAX46Y46*%
G04 Gerber Fmt 4.6, Leading zero omitted, Abs format (unit mm)*
G04 Created by KiCad (PCBNEW (5.1.10-1-10_14)) date 2021-06-13 21:08:41*
%MOMM*%
%LPD*%
G01*
G04 APERTURE LIST*
G04 #@! TA.AperFunction,ComponentPad*
%ADD10R,1.700000X1.700000*%
G04 #@! TD*
G04 #@! TA.AperFunction,ComponentPad*
%ADD11C,1.700000*%
G04 #@! TD*
G04 #@! TA.AperFunction,ComponentPad*
%ADD12C,1.800000*%
G04 #@! TD*
G04 #@! TA.AperFunction,ComponentPad*
%ADD13R,1.800000X1.800000*%
G04 #@! TD*
G04 #@! TA.AperFunction,ComponentPad*
%ADD14O,1.700000X1.700000*%
G04 #@! TD*
G04 #@! TA.AperFunction,ComponentPad*
%ADD15C,1.600000*%
G04 #@! TD*
G04 #@! TA.AperFunction,ComponentPad*
%ADD16R,1.600000X1.600000*%
G04 #@! TD*
G04 #@! TA.AperFunction,ComponentPad*
%ADD17O,1.000000X1.500000*%
G04 #@! TD*
G04 #@! TA.AperFunction,ComponentPad*
%ADD18R,1.000000X1.500000*%
G04 #@! TD*
G04 #@! TA.AperFunction,ComponentPad*
%ADD19O,1.600000X1.600000*%
G04 #@! TD*
G04 #@! TA.AperFunction,Conductor*
%ADD20C,0.250000*%
G04 #@! TD*
G04 #@! TA.AperFunction,Conductor*
%ADD21C,0.300000*%
G04 #@! TD*
G04 #@! TA.AperFunction,Conductor*
%ADD22C,0.500000*%
G04 #@! TD*
G04 #@! TA.AperFunction,Conductor*
%ADD23C,0.254000*%
G04 #@! TD*
G04 #@! TA.AperFunction,Conductor*
%ADD24C,0.100000*%
G04 #@! TD*
G04 APERTURE END LIST*
D10*
X168778920Y-115939560D03*
D11*
X171318920Y-113399560D03*
X173858920Y-115939560D03*
D12*
X138812000Y-109808000D03*
D13*
X136272000Y-109808000D03*
D10*
X126002780Y-93107500D03*
D14*
X126002780Y-95647500D03*
X128542780Y-93107500D03*
X128542780Y-95647500D03*
X131082780Y-93107500D03*
X131082780Y-95647500D03*
X133622780Y-93107500D03*
X133622780Y-95647500D03*
X136162780Y-93107500D03*
X136162780Y-95647500D03*
X138702780Y-93107500D03*
X138702780Y-95647500D03*
X141242780Y-93107500D03*
X141242780Y-95647500D03*
X143782780Y-93107500D03*
X143782780Y-95647500D03*
X146322780Y-93107500D03*
X146322780Y-95647500D03*
X148862780Y-93107500D03*
X148862780Y-95647500D03*
X151402780Y-93107500D03*
X151402780Y-95647500D03*
X153942780Y-93107500D03*
X153942780Y-95647500D03*
X156482780Y-93107500D03*
X156482780Y-95647500D03*
X159022780Y-93107500D03*
X159022780Y-95647500D03*
X161562780Y-93107500D03*
X161562780Y-95647500D03*
X164102780Y-93107500D03*
X164102780Y-95647500D03*
X166642780Y-93107500D03*
X166642780Y-95647500D03*
X169182780Y-93107500D03*
X169182780Y-95647500D03*
X171722780Y-93107500D03*
X171722780Y-95647500D03*
X174262780Y-93107500D03*
X174262780Y-95647500D03*
D15*
X119652000Y-101478000D03*
D16*
X122302000Y-104728000D03*
D12*
X119586740Y-109774980D03*
D13*
X122126740Y-109774980D03*
X126112000Y-109808000D03*
D12*
X128652000Y-109808000D03*
D13*
X131192000Y-109808000D03*
D12*
X133732000Y-109808000D03*
D13*
X141352000Y-109808000D03*
D12*
X143892000Y-109808000D03*
D13*
X146432000Y-109808000D03*
D12*
X148972000Y-109808000D03*
X154052000Y-109808000D03*
D13*
X151512000Y-109808000D03*
D12*
X159132000Y-109808000D03*
D13*
X156592000Y-109808000D03*
D12*
X164212000Y-109808000D03*
D13*
X161672000Y-109808000D03*
X166752000Y-109808000D03*
D12*
X169292000Y-109808000D03*
D17*
X175642000Y-111078000D03*
X176912000Y-111078000D03*
D18*
X174372000Y-111078000D03*
D19*
X126457440Y-106767620D03*
D15*
X126457440Y-99147620D03*
X130089640Y-99198420D03*
D19*
X130089640Y-106818420D03*
D15*
X133673580Y-99147620D03*
D19*
X133673580Y-106767620D03*
X137315940Y-106127540D03*
D15*
X137315940Y-98507540D03*
X141270720Y-98507540D03*
D19*
X141270720Y-106127540D03*
X145019760Y-106127540D03*
D15*
X145019760Y-98507540D03*
X148319220Y-99056180D03*
D19*
X148319220Y-106676180D03*
X152141920Y-106564420D03*
D15*
X152141920Y-98944420D03*
X156129720Y-99043480D03*
D19*
X156129720Y-106663480D03*
X159914320Y-106612680D03*
D15*
X159914320Y-98992680D03*
X164031660Y-98647240D03*
D19*
X164031660Y-106267240D03*
X168126140Y-106196120D03*
D15*
X168126140Y-98576120D03*
X171875180Y-98576120D03*
D19*
X171875180Y-106196120D03*
X175481980Y-106267240D03*
D15*
X175481980Y-98647240D03*
X179159900Y-99061260D03*
D19*
X179159900Y-106681260D03*
D20*
X169589180Y-125406140D02*
X169589180Y-125456940D01*
X164031660Y-106267240D02*
X165736000Y-106267240D01*
X165736000Y-106267240D02*
X166056040Y-105947200D01*
X166056040Y-100646220D02*
X168126140Y-98576120D01*
X166056040Y-105947200D02*
X166056040Y-100646220D01*
X167817781Y-96021503D02*
X167817781Y-92543499D01*
X168126140Y-96329862D02*
X167817781Y-96021503D01*
X168126140Y-98576120D02*
X168126140Y-96329862D01*
X167206781Y-91932499D02*
X147497781Y-91932499D01*
X167817781Y-92543499D02*
X167206781Y-91932499D01*
X147497781Y-91932499D02*
X146322780Y-93107500D01*
X146322780Y-93107500D02*
X145147779Y-91932499D01*
X145147779Y-91932499D02*
X127177781Y-91932499D01*
X127177781Y-91932499D02*
X126002780Y-93107500D01*
X129966999Y-111033001D02*
X131192000Y-109808000D01*
X127337001Y-111033001D02*
X129966999Y-111033001D01*
X126112000Y-109808000D02*
X127337001Y-111033001D01*
X135046999Y-111033001D02*
X136272000Y-109808000D01*
X132417001Y-111033001D02*
X135046999Y-111033001D01*
X131192000Y-109808000D02*
X132417001Y-111033001D01*
X137497001Y-111033001D02*
X140126999Y-111033001D01*
X140126999Y-111033001D02*
X141352000Y-109808000D01*
X136272000Y-109808000D02*
X137497001Y-111033001D01*
X145206999Y-111033001D02*
X146432000Y-109808000D01*
X142577001Y-111033001D02*
X145206999Y-111033001D01*
X141352000Y-109808000D02*
X142577001Y-111033001D01*
X150286999Y-111033001D02*
X151512000Y-109808000D01*
X147657001Y-111033001D02*
X150286999Y-111033001D01*
X146432000Y-109808000D02*
X147657001Y-111033001D01*
X155366999Y-111033001D02*
X156592000Y-109808000D01*
X152737001Y-111033001D02*
X155366999Y-111033001D01*
X151512000Y-109808000D02*
X152737001Y-111033001D01*
X157817001Y-111033001D02*
X160446999Y-111033001D01*
X160446999Y-111033001D02*
X161672000Y-109808000D01*
X156592000Y-109808000D02*
X157817001Y-111033001D01*
X165526999Y-111033001D02*
X166752000Y-109808000D01*
X162897001Y-111033001D02*
X165526999Y-111033001D01*
X161672000Y-109808000D02*
X162897001Y-111033001D01*
X177737010Y-110486270D02*
X177737010Y-113261992D01*
X174609751Y-107359011D02*
X177737010Y-110486270D01*
X169289031Y-107359011D02*
X174609751Y-107359011D01*
X168126140Y-106196120D02*
X169289031Y-107359011D01*
D21*
X134822781Y-94447499D02*
X136162780Y-93107500D01*
X132282781Y-94447499D02*
X134822781Y-94447499D01*
X131082780Y-95647500D02*
X132282781Y-94447499D01*
X140042779Y-94447499D02*
X141242780Y-95647500D01*
X137502779Y-94447499D02*
X140042779Y-94447499D01*
X136162780Y-93107500D02*
X137502779Y-94447499D01*
X147662779Y-94447499D02*
X148862780Y-95647500D01*
X142442781Y-94447499D02*
X147662779Y-94447499D01*
X141242780Y-95647500D02*
X142442781Y-94447499D01*
X155282779Y-94307501D02*
X156482780Y-93107500D01*
X150202779Y-94307501D02*
X155282779Y-94307501D01*
X148862780Y-95647500D02*
X150202779Y-94307501D01*
X160362779Y-94447499D02*
X161562780Y-95647500D01*
X157822779Y-94447499D02*
X160362779Y-94447499D01*
X156482780Y-93107500D02*
X157822779Y-94447499D01*
X165442779Y-96847501D02*
X166642780Y-95647500D01*
X162762781Y-96847501D02*
X165442779Y-96847501D01*
X161562780Y-95647500D02*
X162762781Y-96847501D01*
X173062779Y-94307501D02*
X174262780Y-93107500D01*
X177762010Y-102830851D02*
X173062779Y-98131620D01*
X177762010Y-111680085D02*
X177762010Y-102830851D01*
X177264085Y-112178010D02*
X177762010Y-111680085D01*
X173592008Y-112178010D02*
X177264085Y-112178010D01*
X163711683Y-108284030D02*
X169698028Y-108284030D01*
X173062779Y-98131620D02*
X173062779Y-94307501D01*
X162431649Y-107003996D02*
X163711683Y-108284030D01*
X162431649Y-98545249D02*
X162431649Y-107003996D01*
X169698028Y-108284030D02*
X173592008Y-112178010D01*
X163479659Y-97497239D02*
X162431649Y-98545249D01*
X164793041Y-97497239D02*
X163479659Y-97497239D01*
X166642780Y-95647500D02*
X164793041Y-97497239D01*
X175781999Y-96503779D02*
X178009899Y-98731679D01*
X175781999Y-94626719D02*
X175781999Y-96503779D01*
X178009899Y-98731679D02*
X178009899Y-113026103D01*
X174262780Y-93107500D02*
X175781999Y-94626719D01*
X169106580Y-115868440D02*
X169106580Y-116335800D01*
X175462781Y-94307501D02*
X174262780Y-93107500D01*
X175462781Y-96209961D02*
X175462781Y-94307501D01*
X177762010Y-98509190D02*
X175462781Y-96209961D01*
X177762010Y-114027988D02*
X177762010Y-98509190D01*
X166752000Y-113513860D02*
X169106580Y-115868440D01*
X166752000Y-109808000D02*
X166752000Y-113513860D01*
X175781999Y-116007999D02*
X177762010Y-114027988D01*
X175781999Y-119128001D02*
X175781999Y-116007999D01*
X160832001Y-119128001D02*
X175781999Y-119128001D01*
X151512000Y-109808000D02*
X160832001Y-119128001D01*
X122178422Y-110026440D02*
X122868420Y-110026440D01*
D22*
X122326422Y-110026440D02*
X122868420Y-110026440D01*
X125893560Y-110026440D02*
X126112000Y-109808000D01*
D21*
X120836741Y-108484981D02*
X122126740Y-109774980D01*
X120836741Y-102662741D02*
X120836741Y-108484981D01*
X119652000Y-101478000D02*
X120836741Y-102662741D01*
X126078980Y-109774980D02*
X126112000Y-109808000D01*
X122126740Y-109774980D02*
X126078980Y-109774980D01*
X147270402Y-99056180D02*
X148319220Y-99056180D01*
X143861722Y-95647500D02*
X147270402Y-99056180D01*
X143782780Y-95647500D02*
X143861722Y-95647500D01*
D20*
X146322780Y-95647500D02*
X147123778Y-95647500D01*
D21*
X150045001Y-96847501D02*
X152141920Y-98944420D01*
X147522781Y-96847501D02*
X150045001Y-96847501D01*
X146322780Y-95647500D02*
X147522781Y-96847501D01*
D20*
X151402780Y-95647500D02*
X154242500Y-98487220D01*
D21*
X155573460Y-98487220D02*
X156129720Y-99043480D01*
X154242500Y-98487220D02*
X155573460Y-98487220D01*
D20*
X133706600Y-109782600D02*
X133732000Y-109808000D01*
X148700220Y-109808000D02*
X148972000Y-109808000D01*
X176467010Y-110486270D02*
X173789760Y-107809020D01*
X176878980Y-111078000D02*
X176467010Y-110666030D01*
X176467010Y-110666030D02*
X176467010Y-110486270D01*
X176912000Y-111078000D02*
X176878980Y-111078000D01*
X162906659Y-99772241D02*
X164031660Y-98647240D01*
X162906659Y-106807241D02*
X162906659Y-99772241D01*
X163908438Y-107809020D02*
X162906659Y-106807241D01*
X173789760Y-107809020D02*
X163908438Y-107809020D01*
D23*
X177204051Y-91832281D02*
X176296281Y-92740051D01*
X175805000Y-93926110D01*
X175805000Y-95209890D01*
X176296281Y-96395949D01*
X177204051Y-97303719D01*
X178390110Y-97795000D01*
X179673890Y-97795000D01*
X180859949Y-97303719D01*
X181767719Y-96395949D01*
X181822000Y-96264903D01*
X181822001Y-115871099D01*
X181767719Y-115740051D01*
X180859949Y-114832281D01*
X179673890Y-114341000D01*
X178390110Y-114341000D01*
X177204051Y-114832281D01*
X176296281Y-115740051D01*
X175805000Y-116926110D01*
X175805000Y-118209890D01*
X176296281Y-119395949D01*
X177204051Y-120303719D01*
X177335097Y-120358000D01*
X122728903Y-120358000D01*
X122859949Y-120303719D01*
X123767719Y-119395949D01*
X124259000Y-118209890D01*
X124259000Y-116926110D01*
X123767719Y-115740051D01*
X122859949Y-114832281D01*
X121673890Y-114341000D01*
X120390110Y-114341000D01*
X119204051Y-114832281D01*
X118296281Y-115740051D01*
X118242000Y-115871097D01*
X118242000Y-96264903D01*
X118296281Y-96395949D01*
X119204051Y-97303719D01*
X120390110Y-97795000D01*
X121673890Y-97795000D01*
X122859949Y-97303719D01*
X123767719Y-96395949D01*
X124259000Y-95209890D01*
X124259000Y-93926110D01*
X123998829Y-93298000D01*
X124387908Y-93298000D01*
X124503161Y-93877418D01*
X124831375Y-94368625D01*
X124849619Y-94380816D01*
X124804235Y-94389843D01*
X124594191Y-94530191D01*
X124453843Y-94740235D01*
X124404560Y-94988000D01*
X124404560Y-96688000D01*
X124453843Y-96935765D01*
X124594191Y-97145809D01*
X124804235Y-97286157D01*
X125052000Y-97335440D01*
X126752000Y-97335440D01*
X126999765Y-97286157D01*
X127209809Y-97145809D01*
X127350157Y-96935765D01*
X127359184Y-96890381D01*
X127371375Y-96908625D01*
X127862582Y-97236839D01*
X128295744Y-97323000D01*
X128588256Y-97323000D01*
X129021418Y-97236839D01*
X129512625Y-96908625D01*
X129712000Y-96610239D01*
X129911375Y-96908625D01*
X130402582Y-97236839D01*
X130835744Y-97323000D01*
X131128256Y-97323000D01*
X131561418Y-97236839D01*
X132052625Y-96908625D01*
X132252000Y-96610239D01*
X132451375Y-96908625D01*
X132942582Y-97236839D01*
X133375744Y-97323000D01*
X133668256Y-97323000D01*
X134101418Y-97236839D01*
X134592625Y-96908625D01*
X134805843Y-96589522D01*
X134866817Y-96719358D01*
X135295076Y-97109645D01*
X135705110Y-97279476D01*
X135935000Y-97158155D01*
X135935000Y-95965000D01*
X135915000Y-95965000D01*
X135915000Y-95711000D01*
X135935000Y-95711000D01*
X135935000Y-95691000D01*
X136189000Y-95691000D01*
X136189000Y-95711000D01*
X136209000Y-95711000D01*
X136209000Y-95965000D01*
X136189000Y-95965000D01*
X136189000Y-97158155D01*
X136418890Y-97279476D01*
X136828924Y-97109645D01*
X137257183Y-96719358D01*
X137318157Y-96589522D01*
X137531375Y-96908625D01*
X138022582Y-97236839D01*
X138455744Y-97323000D01*
X138748256Y-97323000D01*
X139181418Y-97236839D01*
X139672625Y-96908625D01*
X139872000Y-96610239D01*
X140071375Y-96908625D01*
X140562582Y-97236839D01*
X140995744Y-97323000D01*
X141288256Y-97323000D01*
X141721418Y-97236839D01*
X142212625Y-96908625D01*
X142412000Y-96610239D01*
X142611375Y-96908625D01*
X143102582Y-97236839D01*
X143535744Y-97323000D01*
X143828256Y-97323000D01*
X144261418Y-97236839D01*
X144752625Y-96908625D01*
X144952000Y-96610239D01*
X145151375Y-96908625D01*
X145642582Y-97236839D01*
X146075744Y-97323000D01*
X146368256Y-97323000D01*
X146801418Y-97236839D01*
X147292625Y-96908625D01*
X147492000Y-96610239D01*
X147691375Y-96908625D01*
X148182582Y-97236839D01*
X148615744Y-97323000D01*
X148908256Y-97323000D01*
X149341418Y-97236839D01*
X149832625Y-96908625D01*
X150032000Y-96610239D01*
X150231375Y-96908625D01*
X150722582Y-97236839D01*
X151155744Y-97323000D01*
X151448256Y-97323000D01*
X151881418Y-97236839D01*
X152372625Y-96908625D01*
X152572000Y-96610239D01*
X152771375Y-96908625D01*
X153262582Y-97236839D01*
X153695744Y-97323000D01*
X153988256Y-97323000D01*
X154421418Y-97236839D01*
X154912625Y-96908625D01*
X155125843Y-96589522D01*
X155186817Y-96719358D01*
X155615076Y-97109645D01*
X156025110Y-97279476D01*
X156255000Y-97158155D01*
X156255000Y-95965000D01*
X156235000Y-95965000D01*
X156235000Y-95711000D01*
X156255000Y-95711000D01*
X156255000Y-95691000D01*
X156509000Y-95691000D01*
X156509000Y-95711000D01*
X156529000Y-95711000D01*
X156529000Y-95965000D01*
X156509000Y-95965000D01*
X156509000Y-97158155D01*
X156738890Y-97279476D01*
X157148924Y-97109645D01*
X157577183Y-96719358D01*
X157638157Y-96589522D01*
X157851375Y-96908625D01*
X158342582Y-97236839D01*
X158775744Y-97323000D01*
X159068256Y-97323000D01*
X159501418Y-97236839D01*
X159992625Y-96908625D01*
X160192000Y-96610239D01*
X160391375Y-96908625D01*
X160882582Y-97236839D01*
X161315744Y-97323000D01*
X161608256Y-97323000D01*
X162041418Y-97236839D01*
X162532625Y-96908625D01*
X162732000Y-96610239D01*
X162931375Y-96908625D01*
X163422582Y-97236839D01*
X163855744Y-97323000D01*
X164148256Y-97323000D01*
X164581418Y-97236839D01*
X165072625Y-96908625D01*
X165272000Y-96610239D01*
X165471375Y-96908625D01*
X165962582Y-97236839D01*
X166395744Y-97323000D01*
X166688256Y-97323000D01*
X167121418Y-97236839D01*
X167612625Y-96908625D01*
X167812000Y-96610239D01*
X168011375Y-96908625D01*
X168502582Y-97236839D01*
X168935744Y-97323000D01*
X169228256Y-97323000D01*
X169661418Y-97236839D01*
X170152625Y-96908625D01*
X170352000Y-96610239D01*
X170551375Y-96908625D01*
X171042582Y-97236839D01*
X171475744Y-97323000D01*
X171768256Y-97323000D01*
X172201418Y-97236839D01*
X172692625Y-96908625D01*
X172905843Y-96589522D01*
X172966817Y-96719358D01*
X173395076Y-97109645D01*
X173805110Y-97279476D01*
X174035000Y-97158155D01*
X174035000Y-95965000D01*
X174289000Y-95965000D01*
X174289000Y-97158155D01*
X174518890Y-97279476D01*
X174928924Y-97109645D01*
X175357183Y-96719358D01*
X175603486Y-96194892D01*
X175482819Y-95965000D01*
X174289000Y-95965000D01*
X174035000Y-95965000D01*
X174015000Y-95965000D01*
X174015000Y-95711000D01*
X174035000Y-95711000D01*
X174035000Y-95691000D01*
X174289000Y-95691000D01*
X174289000Y-95711000D01*
X175482819Y-95711000D01*
X175603486Y-95481108D01*
X175357183Y-94956642D01*
X174932214Y-94569353D01*
X175232625Y-94368625D01*
X175560839Y-93877418D01*
X175676092Y-93298000D01*
X175560839Y-92718582D01*
X175232625Y-92227375D01*
X174741418Y-91899161D01*
X174308256Y-91813000D01*
X174015744Y-91813000D01*
X173582582Y-91899161D01*
X173091375Y-92227375D01*
X172892000Y-92525761D01*
X172692625Y-92227375D01*
X172201418Y-91899161D01*
X171768256Y-91813000D01*
X171475744Y-91813000D01*
X171042582Y-91899161D01*
X170551375Y-92227375D01*
X170352000Y-92525761D01*
X170152625Y-92227375D01*
X169661418Y-91899161D01*
X169228256Y-91813000D01*
X168935744Y-91813000D01*
X168502582Y-91899161D01*
X168011375Y-92227375D01*
X167798157Y-92546478D01*
X167737183Y-92416642D01*
X167308924Y-92026355D01*
X166898890Y-91856524D01*
X166669000Y-91977845D01*
X166669000Y-93171000D01*
X166689000Y-93171000D01*
X166689000Y-93425000D01*
X166669000Y-93425000D01*
X166669000Y-93445000D01*
X166415000Y-93445000D01*
X166415000Y-93425000D01*
X166395000Y-93425000D01*
X166395000Y-93171000D01*
X166415000Y-93171000D01*
X166415000Y-91977845D01*
X166185110Y-91856524D01*
X165775076Y-92026355D01*
X165346817Y-92416642D01*
X165285843Y-92546478D01*
X165072625Y-92227375D01*
X164581418Y-91899161D01*
X164148256Y-91813000D01*
X163855744Y-91813000D01*
X163422582Y-91899161D01*
X162931375Y-92227375D01*
X162718157Y-92546478D01*
X162657183Y-92416642D01*
X162228924Y-92026355D01*
X161818890Y-91856524D01*
X161589000Y-91977845D01*
X161589000Y-93171000D01*
X161609000Y-93171000D01*
X161609000Y-93425000D01*
X161589000Y-93425000D01*
X161589000Y-93445000D01*
X161335000Y-93445000D01*
X161335000Y-93425000D01*
X161315000Y-93425000D01*
X161315000Y-93171000D01*
X161335000Y-93171000D01*
X161335000Y-91977845D01*
X161105110Y-91856524D01*
X160695076Y-92026355D01*
X160266817Y-92416642D01*
X160205843Y-92546478D01*
X159992625Y-92227375D01*
X159501418Y-91899161D01*
X159068256Y-91813000D01*
X158775744Y-91813000D01*
X158342582Y-91899161D01*
X157851375Y-92227375D01*
X157652000Y-92525761D01*
X157452625Y-92227375D01*
X156961418Y-91899161D01*
X156528256Y-91813000D01*
X156235744Y-91813000D01*
X155802582Y-91899161D01*
X155311375Y-92227375D01*
X155112000Y-92525761D01*
X154912625Y-92227375D01*
X154421418Y-91899161D01*
X153988256Y-91813000D01*
X153695744Y-91813000D01*
X153262582Y-91899161D01*
X152771375Y-92227375D01*
X152572000Y-92525761D01*
X152372625Y-92227375D01*
X151881418Y-91899161D01*
X151448256Y-91813000D01*
X151155744Y-91813000D01*
X150722582Y-91899161D01*
X150231375Y-92227375D01*
X150018157Y-92546478D01*
X149957183Y-92416642D01*
X149528924Y-92026355D01*
X149118890Y-91856524D01*
X148889000Y-91977845D01*
X148889000Y-93171000D01*
X148909000Y-93171000D01*
X148909000Y-93425000D01*
X148889000Y-93425000D01*
X148889000Y-93445000D01*
X148635000Y-93445000D01*
X148635000Y-93425000D01*
X148615000Y-93425000D01*
X148615000Y-93171000D01*
X148635000Y-93171000D01*
X148635000Y-91977845D01*
X148405110Y-91856524D01*
X147995076Y-92026355D01*
X147566817Y-92416642D01*
X147505843Y-92546478D01*
X147292625Y-92227375D01*
X146801418Y-91899161D01*
X146368256Y-91813000D01*
X146075744Y-91813000D01*
X145642582Y-91899161D01*
X145151375Y-92227375D01*
X144952000Y-92525761D01*
X144752625Y-92227375D01*
X144261418Y-91899161D01*
X143828256Y-91813000D01*
X143535744Y-91813000D01*
X143102582Y-91899161D01*
X142611375Y-92227375D01*
X142398157Y-92546478D01*
X142337183Y-92416642D01*
X141908924Y-92026355D01*
X141498890Y-91856524D01*
X141269000Y-91977845D01*
X141269000Y-93171000D01*
X141289000Y-93171000D01*
X141289000Y-93425000D01*
X141269000Y-93425000D01*
X141269000Y-93445000D01*
X141015000Y-93445000D01*
X141015000Y-93425000D01*
X140995000Y-93425000D01*
X140995000Y-93171000D01*
X141015000Y-93171000D01*
X141015000Y-91977845D01*
X140785110Y-91856524D01*
X140375076Y-92026355D01*
X139946817Y-92416642D01*
X139885843Y-92546478D01*
X139672625Y-92227375D01*
X139181418Y-91899161D01*
X138748256Y-91813000D01*
X138455744Y-91813000D01*
X138022582Y-91899161D01*
X137531375Y-92227375D01*
X137332000Y-92525761D01*
X137132625Y-92227375D01*
X136641418Y-91899161D01*
X136208256Y-91813000D01*
X135915744Y-91813000D01*
X135482582Y-91899161D01*
X134991375Y-92227375D01*
X134792000Y-92525761D01*
X134592625Y-92227375D01*
X134101418Y-91899161D01*
X133668256Y-91813000D01*
X133375744Y-91813000D01*
X132942582Y-91899161D01*
X132451375Y-92227375D01*
X132238157Y-92546478D01*
X132177183Y-92416642D01*
X131748924Y-92026355D01*
X131338890Y-91856524D01*
X131109000Y-91977845D01*
X131109000Y-93171000D01*
X131129000Y-93171000D01*
X131129000Y-93425000D01*
X131109000Y-93425000D01*
X131109000Y-93445000D01*
X130855000Y-93445000D01*
X130855000Y-93425000D01*
X130835000Y-93425000D01*
X130835000Y-93171000D01*
X130855000Y-93171000D01*
X130855000Y-91977845D01*
X130625110Y-91856524D01*
X130215076Y-92026355D01*
X129786817Y-92416642D01*
X129725843Y-92546478D01*
X129512625Y-92227375D01*
X129021418Y-91899161D01*
X128588256Y-91813000D01*
X128295744Y-91813000D01*
X127862582Y-91899161D01*
X127371375Y-92227375D01*
X127172000Y-92525761D01*
X126972625Y-92227375D01*
X126481418Y-91899161D01*
X126048256Y-91813000D01*
X125755744Y-91813000D01*
X125322582Y-91899161D01*
X124831375Y-92227375D01*
X124503161Y-92718582D01*
X124387908Y-93298000D01*
X123998829Y-93298000D01*
X123767719Y-92740051D01*
X122859949Y-91832281D01*
X122728903Y-91778000D01*
X177335097Y-91778000D01*
X177204051Y-91832281D01*
G04 #@! TA.AperFunction,Conductor*
D24*
G36*
X177204051Y-91832281D02*
G01*
X176296281Y-92740051D01*
X175805000Y-93926110D01*
X175805000Y-95209890D01*
X176296281Y-96395949D01*
X177204051Y-97303719D01*
X178390110Y-97795000D01*
X179673890Y-97795000D01*
X180859949Y-97303719D01*
X181767719Y-96395949D01*
X181822000Y-96264903D01*
X181822001Y-115871099D01*
X181767719Y-115740051D01*
X180859949Y-114832281D01*
X179673890Y-114341000D01*
X178390110Y-114341000D01*
X177204051Y-114832281D01*
X176296281Y-115740051D01*
X175805000Y-116926110D01*
X175805000Y-118209890D01*
X176296281Y-119395949D01*
X177204051Y-120303719D01*
X177335097Y-120358000D01*
X122728903Y-120358000D01*
X122859949Y-120303719D01*
X123767719Y-119395949D01*
X124259000Y-118209890D01*
X124259000Y-116926110D01*
X123767719Y-115740051D01*
X122859949Y-114832281D01*
X121673890Y-114341000D01*
X120390110Y-114341000D01*
X119204051Y-114832281D01*
X118296281Y-115740051D01*
X118242000Y-115871097D01*
X118242000Y-96264903D01*
X118296281Y-96395949D01*
X119204051Y-97303719D01*
X120390110Y-97795000D01*
X121673890Y-97795000D01*
X122859949Y-97303719D01*
X123767719Y-96395949D01*
X124259000Y-95209890D01*
X124259000Y-93926110D01*
X123998829Y-93298000D01*
X124387908Y-93298000D01*
X124503161Y-93877418D01*
X124831375Y-94368625D01*
X124849619Y-94380816D01*
X124804235Y-94389843D01*
X124594191Y-94530191D01*
X124453843Y-94740235D01*
X124404560Y-94988000D01*
X124404560Y-96688000D01*
X124453843Y-96935765D01*
X124594191Y-97145809D01*
X124804235Y-97286157D01*
X125052000Y-97335440D01*
X126752000Y-97335440D01*
X126999765Y-97286157D01*
X127209809Y-97145809D01*
X127350157Y-96935765D01*
X127359184Y-96890381D01*
X127371375Y-96908625D01*
X127862582Y-97236839D01*
X128295744Y-97323000D01*
X128588256Y-97323000D01*
X129021418Y-97236839D01*
X129512625Y-96908625D01*
X129712000Y-96610239D01*
X129911375Y-96908625D01*
X130402582Y-97236839D01*
X130835744Y-97323000D01*
X131128256Y-97323000D01*
X131561418Y-97236839D01*
X132052625Y-96908625D01*
X132252000Y-96610239D01*
X132451375Y-96908625D01*
X132942582Y-97236839D01*
X133375744Y-97323000D01*
X133668256Y-97323000D01*
X134101418Y-97236839D01*
X134592625Y-96908625D01*
X134805843Y-96589522D01*
X134866817Y-96719358D01*
X135295076Y-97109645D01*
X135705110Y-97279476D01*
X135935000Y-97158155D01*
X135935000Y-95965000D01*
X135915000Y-95965000D01*
X135915000Y-95711000D01*
X135935000Y-95711000D01*
X135935000Y-95691000D01*
X136189000Y-95691000D01*
X136189000Y-95711000D01*
X136209000Y-95711000D01*
X136209000Y-95965000D01*
X136189000Y-95965000D01*
X136189000Y-97158155D01*
X136418890Y-97279476D01*
X136828924Y-97109645D01*
X137257183Y-96719358D01*
X137318157Y-96589522D01*
X137531375Y-96908625D01*
X138022582Y-97236839D01*
X138455744Y-97323000D01*
X138748256Y-97323000D01*
X139181418Y-97236839D01*
X139672625Y-96908625D01*
X139872000Y-96610239D01*
X140071375Y-96908625D01*
X140562582Y-97236839D01*
X140995744Y-97323000D01*
X141288256Y-97323000D01*
X141721418Y-97236839D01*
X142212625Y-96908625D01*
X142412000Y-96610239D01*
X142611375Y-96908625D01*
X143102582Y-97236839D01*
X143535744Y-97323000D01*
X143828256Y-97323000D01*
X144261418Y-97236839D01*
X144752625Y-96908625D01*
X144952000Y-96610239D01*
X145151375Y-96908625D01*
X145642582Y-97236839D01*
X146075744Y-97323000D01*
X146368256Y-97323000D01*
X146801418Y-97236839D01*
X147292625Y-96908625D01*
X147492000Y-96610239D01*
X147691375Y-96908625D01*
X148182582Y-97236839D01*
X148615744Y-97323000D01*
X148908256Y-97323000D01*
X149341418Y-97236839D01*
X149832625Y-96908625D01*
X150032000Y-96610239D01*
X150231375Y-96908625D01*
X150722582Y-97236839D01*
X151155744Y-97323000D01*
X151448256Y-97323000D01*
X151881418Y-97236839D01*
X152372625Y-96908625D01*
X152572000Y-96610239D01*
X152771375Y-96908625D01*
X153262582Y-97236839D01*
X153695744Y-97323000D01*
X153988256Y-97323000D01*
X154421418Y-97236839D01*
X154912625Y-96908625D01*
X155125843Y-96589522D01*
X155186817Y-96719358D01*
X155615076Y-97109645D01*
X156025110Y-97279476D01*
X156255000Y-97158155D01*
X156255000Y-95965000D01*
X156235000Y-95965000D01*
X156235000Y-95711000D01*
X156255000Y-95711000D01*
X156255000Y-95691000D01*
X156509000Y-95691000D01*
X156509000Y-95711000D01*
X156529000Y-95711000D01*
X156529000Y-95965000D01*
X156509000Y-95965000D01*
X156509000Y-97158155D01*
X156738890Y-97279476D01*
X157148924Y-97109645D01*
X157577183Y-96719358D01*
X157638157Y-96589522D01*
X157851375Y-96908625D01*
X158342582Y-97236839D01*
X158775744Y-97323000D01*
X159068256Y-97323000D01*
X159501418Y-97236839D01*
X159992625Y-96908625D01*
X160192000Y-96610239D01*
X160391375Y-96908625D01*
X160882582Y-97236839D01*
X161315744Y-97323000D01*
X161608256Y-97323000D01*
X162041418Y-97236839D01*
X162532625Y-96908625D01*
X162732000Y-96610239D01*
X162931375Y-96908625D01*
X163422582Y-97236839D01*
X163855744Y-97323000D01*
X164148256Y-97323000D01*
X164581418Y-97236839D01*
X165072625Y-96908625D01*
X165272000Y-96610239D01*
X165471375Y-96908625D01*
X165962582Y-97236839D01*
X166395744Y-97323000D01*
X166688256Y-97323000D01*
X167121418Y-97236839D01*
X167612625Y-96908625D01*
X167812000Y-96610239D01*
X168011375Y-96908625D01*
X168502582Y-97236839D01*
X168935744Y-97323000D01*
X169228256Y-97323000D01*
X169661418Y-97236839D01*
X170152625Y-96908625D01*
X170352000Y-96610239D01*
X170551375Y-96908625D01*
X171042582Y-97236839D01*
X171475744Y-97323000D01*
X171768256Y-97323000D01*
X172201418Y-97236839D01*
X172692625Y-96908625D01*
X172905843Y-96589522D01*
X172966817Y-96719358D01*
X173395076Y-97109645D01*
X173805110Y-97279476D01*
X174035000Y-97158155D01*
X174035000Y-95965000D01*
X174289000Y-95965000D01*
X174289000Y-97158155D01*
X174518890Y-97279476D01*
X174928924Y-97109645D01*
X175357183Y-96719358D01*
X175603486Y-96194892D01*
X175482819Y-95965000D01*
X174289000Y-95965000D01*
X174035000Y-95965000D01*
X174015000Y-95965000D01*
X174015000Y-95711000D01*
X174035000Y-95711000D01*
X174035000Y-95691000D01*
X174289000Y-95691000D01*
X174289000Y-95711000D01*
X175482819Y-95711000D01*
X175603486Y-95481108D01*
X175357183Y-94956642D01*
X174932214Y-94569353D01*
X175232625Y-94368625D01*
X175560839Y-93877418D01*
X175676092Y-93298000D01*
X175560839Y-92718582D01*
X175232625Y-92227375D01*
X174741418Y-91899161D01*
X174308256Y-91813000D01*
X174015744Y-91813000D01*
X173582582Y-91899161D01*
X173091375Y-92227375D01*
X172892000Y-92525761D01*
X172692625Y-92227375D01*
X172201418Y-91899161D01*
X171768256Y-91813000D01*
X171475744Y-91813000D01*
X171042582Y-91899161D01*
X170551375Y-92227375D01*
X170352000Y-92525761D01*
X170152625Y-92227375D01*
X169661418Y-91899161D01*
X169228256Y-91813000D01*
X168935744Y-91813000D01*
X168502582Y-91899161D01*
X168011375Y-92227375D01*
X167798157Y-92546478D01*
X167737183Y-92416642D01*
X167308924Y-92026355D01*
X166898890Y-91856524D01*
X166669000Y-91977845D01*
X166669000Y-93171000D01*
X166689000Y-93171000D01*
X166689000Y-93425000D01*
X166669000Y-93425000D01*
X166669000Y-93445000D01*
X166415000Y-93445000D01*
X166415000Y-93425000D01*
X166395000Y-93425000D01*
X166395000Y-93171000D01*
X166415000Y-93171000D01*
X166415000Y-91977845D01*
X166185110Y-91856524D01*
X165775076Y-92026355D01*
X165346817Y-92416642D01*
X165285843Y-92546478D01*
X165072625Y-92227375D01*
X164581418Y-91899161D01*
X164148256Y-91813000D01*
X163855744Y-91813000D01*
X163422582Y-91899161D01*
X162931375Y-92227375D01*
X162718157Y-92546478D01*
X162657183Y-92416642D01*
X162228924Y-92026355D01*
X161818890Y-91856524D01*
X161589000Y-91977845D01*
X161589000Y-93171000D01*
X161609000Y-93171000D01*
X161609000Y-93425000D01*
X161589000Y-93425000D01*
X161589000Y-93445000D01*
X161335000Y-93445000D01*
X161335000Y-93425000D01*
X161315000Y-93425000D01*
X161315000Y-93171000D01*
X161335000Y-93171000D01*
X161335000Y-91977845D01*
X161105110Y-91856524D01*
X160695076Y-92026355D01*
X160266817Y-92416642D01*
X160205843Y-92546478D01*
X159992625Y-92227375D01*
X159501418Y-91899161D01*
X159068256Y-91813000D01*
X158775744Y-91813000D01*
X158342582Y-91899161D01*
X157851375Y-92227375D01*
X157652000Y-92525761D01*
X157452625Y-92227375D01*
X156961418Y-91899161D01*
X156528256Y-91813000D01*
X156235744Y-91813000D01*
X155802582Y-91899161D01*
X155311375Y-92227375D01*
X155112000Y-92525761D01*
X154912625Y-92227375D01*
X154421418Y-91899161D01*
X153988256Y-91813000D01*
X153695744Y-91813000D01*
X153262582Y-91899161D01*
X152771375Y-92227375D01*
X152572000Y-92525761D01*
X152372625Y-92227375D01*
X151881418Y-91899161D01*
X151448256Y-91813000D01*
X151155744Y-91813000D01*
X150722582Y-91899161D01*
X150231375Y-92227375D01*
X150018157Y-92546478D01*
X149957183Y-92416642D01*
X149528924Y-92026355D01*
X149118890Y-91856524D01*
X148889000Y-91977845D01*
X148889000Y-93171000D01*
X148909000Y-93171000D01*
X148909000Y-93425000D01*
X148889000Y-93425000D01*
X148889000Y-93445000D01*
X148635000Y-93445000D01*
X148635000Y-93425000D01*
X148615000Y-93425000D01*
X148615000Y-93171000D01*
X148635000Y-93171000D01*
X148635000Y-91977845D01*
X148405110Y-91856524D01*
X147995076Y-92026355D01*
X147566817Y-92416642D01*
X147505843Y-92546478D01*
X147292625Y-92227375D01*
X146801418Y-91899161D01*
X146368256Y-91813000D01*
X146075744Y-91813000D01*
X145642582Y-91899161D01*
X145151375Y-92227375D01*
X144952000Y-92525761D01*
X144752625Y-92227375D01*
X144261418Y-91899161D01*
X143828256Y-91813000D01*
X143535744Y-91813000D01*
X143102582Y-91899161D01*
X142611375Y-92227375D01*
X142398157Y-92546478D01*
X142337183Y-92416642D01*
X141908924Y-92026355D01*
X141498890Y-91856524D01*
X141269000Y-91977845D01*
X141269000Y-93171000D01*
X141289000Y-93171000D01*
X141289000Y-93425000D01*
X141269000Y-93425000D01*
X141269000Y-93445000D01*
X141015000Y-93445000D01*
X141015000Y-93425000D01*
X140995000Y-93425000D01*
X140995000Y-93171000D01*
X141015000Y-93171000D01*
X141015000Y-91977845D01*
X140785110Y-91856524D01*
X140375076Y-92026355D01*
X139946817Y-92416642D01*
X139885843Y-92546478D01*
X139672625Y-92227375D01*
X139181418Y-91899161D01*
X138748256Y-91813000D01*
X138455744Y-91813000D01*
X138022582Y-91899161D01*
X137531375Y-92227375D01*
X137332000Y-92525761D01*
X137132625Y-92227375D01*
X136641418Y-91899161D01*
X136208256Y-91813000D01*
X135915744Y-91813000D01*
X135482582Y-91899161D01*
X134991375Y-92227375D01*
X134792000Y-92525761D01*
X134592625Y-92227375D01*
X134101418Y-91899161D01*
X133668256Y-91813000D01*
X133375744Y-91813000D01*
X132942582Y-91899161D01*
X132451375Y-92227375D01*
X132238157Y-92546478D01*
X132177183Y-92416642D01*
X131748924Y-92026355D01*
X131338890Y-91856524D01*
X131109000Y-91977845D01*
X131109000Y-93171000D01*
X131129000Y-93171000D01*
X131129000Y-93425000D01*
X131109000Y-93425000D01*
X131109000Y-93445000D01*
X130855000Y-93445000D01*
X130855000Y-93425000D01*
X130835000Y-93425000D01*
X130835000Y-93171000D01*
X130855000Y-93171000D01*
X130855000Y-91977845D01*
X130625110Y-91856524D01*
X130215076Y-92026355D01*
X129786817Y-92416642D01*
X129725843Y-92546478D01*
X129512625Y-92227375D01*
X129021418Y-91899161D01*
X128588256Y-91813000D01*
X128295744Y-91813000D01*
X127862582Y-91899161D01*
X127371375Y-92227375D01*
X127172000Y-92525761D01*
X126972625Y-92227375D01*
X126481418Y-91899161D01*
X126048256Y-91813000D01*
X125755744Y-91813000D01*
X125322582Y-91899161D01*
X124831375Y-92227375D01*
X124503161Y-92718582D01*
X124387908Y-93298000D01*
X123998829Y-93298000D01*
X123767719Y-92740051D01*
X122859949Y-91832281D01*
X122728903Y-91778000D01*
X177335097Y-91778000D01*
X177204051Y-91832281D01*
G37*
G04 #@! TD.AperFunction*
M02*
