G04 #@! TF.GenerationSoftware,KiCad,Pcbnew,(5.1.10-1-10_14)*
G04 #@! TF.CreationDate,2021-06-13T21:08:41+02:00*
G04 #@! TF.ProjectId,led_status_pcb_design,6c65645f-7374-4617-9475-735f7063625f,1.0*
G04 #@! TF.SameCoordinates,Original*
G04 #@! TF.FileFunction,Legend,Top*
G04 #@! TF.FilePolarity,Positive*
%FSLAX46Y46*%
G04 Gerber Fmt 4.6, Leading zero omitted, Abs format (unit mm)*
G04 Created by KiCad (PCBNEW (5.1.10-1-10_14)) date 2021-06-13 21:08:41*
%MOMM*%
%LPD*%
G01*
G04 APERTURE LIST*
%ADD10C,0.100000*%
%ADD11C,0.120000*%
%ADD12C,0.150000*%
G04 APERTURE END LIST*
D10*
X166918920Y-119664560D02*
X167593920Y-120339560D01*
X168600383Y-119394654D02*
G75*
G03*
X167868920Y-118664560I2718537J3455094D01*
G01*
D11*
X124672780Y-96977500D02*
X124672780Y-94377500D01*
X124672780Y-96977500D02*
X175592780Y-96977500D01*
X175592780Y-96977500D02*
X175592780Y-91777500D01*
X127272780Y-91777500D02*
X175592780Y-91777500D01*
X127272780Y-94377500D02*
X127272780Y-91777500D01*
X124672780Y-94377500D02*
X127272780Y-94377500D01*
X124672780Y-91777500D02*
X126002780Y-91777500D01*
X124672780Y-93107500D02*
X124672780Y-91777500D01*
X122512000Y-108213000D02*
X122512000Y-105788000D01*
X122512000Y-103668000D02*
X122512000Y-97993000D01*
X122512000Y-97993000D02*
X119442000Y-97993000D01*
X122512000Y-108213000D02*
X119442000Y-108213000D01*
X119442000Y-108213000D02*
X119442000Y-102538000D01*
X119442000Y-100418000D02*
X119442000Y-97993000D01*
X133732000Y-110888000D02*
X133732000Y-110888000D01*
X133732000Y-111018000D02*
X133732000Y-110888000D01*
X133732000Y-111018000D02*
X133732000Y-111018000D01*
X133732000Y-110888000D02*
X133732000Y-111018000D01*
X131192000Y-110888000D02*
X131192000Y-110888000D01*
X131192000Y-111018000D02*
X131192000Y-110888000D01*
X131192000Y-111018000D02*
X131192000Y-111018000D01*
X131192000Y-110888000D02*
X131192000Y-111018000D01*
X135022000Y-111018000D02*
X135422000Y-111018000D01*
X135022000Y-112138000D02*
X135022000Y-111018000D01*
X135422000Y-112138000D02*
X135022000Y-112138000D01*
X135422000Y-111018000D02*
X135422000Y-112138000D01*
X129902000Y-111018000D02*
X135022000Y-111018000D01*
X135022000Y-111018000D02*
X135022000Y-117178000D01*
X129902000Y-111018000D02*
X129902000Y-117178000D01*
X135022000Y-117178000D02*
G75*
G02*
X129902000Y-117178000I-2560000J0D01*
G01*
X143892000Y-110888000D02*
X143892000Y-110888000D01*
X143892000Y-111018000D02*
X143892000Y-110888000D01*
X143892000Y-111018000D02*
X143892000Y-111018000D01*
X143892000Y-110888000D02*
X143892000Y-111018000D01*
X141352000Y-110888000D02*
X141352000Y-110888000D01*
X141352000Y-111018000D02*
X141352000Y-110888000D01*
X141352000Y-111018000D02*
X141352000Y-111018000D01*
X141352000Y-110888000D02*
X141352000Y-111018000D01*
X145182000Y-111018000D02*
X145582000Y-111018000D01*
X145182000Y-112138000D02*
X145182000Y-111018000D01*
X145582000Y-112138000D02*
X145182000Y-112138000D01*
X145582000Y-111018000D02*
X145582000Y-112138000D01*
X140062000Y-111018000D02*
X145182000Y-111018000D01*
X145182000Y-111018000D02*
X145182000Y-117178000D01*
X140062000Y-111018000D02*
X140062000Y-117178000D01*
X145182000Y-117178000D02*
G75*
G02*
X140062000Y-117178000I-2560000J0D01*
G01*
X150222000Y-111018000D02*
X150222000Y-117178000D01*
X155342000Y-111018000D02*
X155342000Y-117178000D01*
X150222000Y-111018000D02*
X155342000Y-111018000D01*
X155742000Y-111018000D02*
X155742000Y-112138000D01*
X155742000Y-112138000D02*
X155342000Y-112138000D01*
X155342000Y-112138000D02*
X155342000Y-111018000D01*
X155342000Y-111018000D02*
X155742000Y-111018000D01*
X151512000Y-110888000D02*
X151512000Y-111018000D01*
X151512000Y-111018000D02*
X151512000Y-111018000D01*
X151512000Y-111018000D02*
X151512000Y-110888000D01*
X151512000Y-110888000D02*
X151512000Y-110888000D01*
X154052000Y-110888000D02*
X154052000Y-111018000D01*
X154052000Y-111018000D02*
X154052000Y-111018000D01*
X154052000Y-111018000D02*
X154052000Y-110888000D01*
X154052000Y-110888000D02*
X154052000Y-110888000D01*
X155342000Y-117178000D02*
G75*
G02*
X150222000Y-117178000I-2560000J0D01*
G01*
X160382000Y-111018000D02*
X160382000Y-117178000D01*
X165502000Y-111018000D02*
X165502000Y-117178000D01*
X160382000Y-111018000D02*
X165502000Y-111018000D01*
X165902000Y-111018000D02*
X165902000Y-112138000D01*
X165902000Y-112138000D02*
X165502000Y-112138000D01*
X165502000Y-112138000D02*
X165502000Y-111018000D01*
X165502000Y-111018000D02*
X165902000Y-111018000D01*
X161672000Y-110888000D02*
X161672000Y-111018000D01*
X161672000Y-111018000D02*
X161672000Y-111018000D01*
X161672000Y-111018000D02*
X161672000Y-110888000D01*
X161672000Y-110888000D02*
X161672000Y-110888000D01*
X164212000Y-110888000D02*
X164212000Y-111018000D01*
X164212000Y-111018000D02*
X164212000Y-111018000D01*
X164212000Y-111018000D02*
X164212000Y-110888000D01*
X164212000Y-110888000D02*
X164212000Y-110888000D01*
X165502000Y-117178000D02*
G75*
G02*
X160382000Y-117178000I-2560000J0D01*
G01*
X127497440Y-99687620D02*
X127827440Y-99687620D01*
X127827440Y-99687620D02*
X127827440Y-106227620D01*
X127827440Y-106227620D02*
X127497440Y-106227620D01*
X125417440Y-99687620D02*
X125087440Y-99687620D01*
X125087440Y-99687620D02*
X125087440Y-106227620D01*
X125087440Y-106227620D02*
X125417440Y-106227620D01*
X128719640Y-106278420D02*
X129049640Y-106278420D01*
X128719640Y-99738420D02*
X128719640Y-106278420D01*
X129049640Y-99738420D02*
X128719640Y-99738420D01*
X131459640Y-106278420D02*
X131129640Y-106278420D01*
X131459640Y-99738420D02*
X131459640Y-106278420D01*
X131129640Y-99738420D02*
X131459640Y-99738420D01*
X132303580Y-106227620D02*
X132633580Y-106227620D01*
X132303580Y-99687620D02*
X132303580Y-106227620D01*
X132633580Y-99687620D02*
X132303580Y-99687620D01*
X135043580Y-106227620D02*
X134713580Y-106227620D01*
X135043580Y-99687620D02*
X135043580Y-106227620D01*
X134713580Y-99687620D02*
X135043580Y-99687620D01*
X138355940Y-99047540D02*
X138685940Y-99047540D01*
X138685940Y-99047540D02*
X138685940Y-105587540D01*
X138685940Y-105587540D02*
X138355940Y-105587540D01*
X136275940Y-99047540D02*
X135945940Y-99047540D01*
X135945940Y-99047540D02*
X135945940Y-105587540D01*
X135945940Y-105587540D02*
X136275940Y-105587540D01*
X139900720Y-105587540D02*
X140230720Y-105587540D01*
X139900720Y-99047540D02*
X139900720Y-105587540D01*
X140230720Y-99047540D02*
X139900720Y-99047540D01*
X142640720Y-105587540D02*
X142310720Y-105587540D01*
X142640720Y-99047540D02*
X142640720Y-105587540D01*
X142310720Y-99047540D02*
X142640720Y-99047540D01*
X146059760Y-99047540D02*
X146389760Y-99047540D01*
X146389760Y-99047540D02*
X146389760Y-105587540D01*
X146389760Y-105587540D02*
X146059760Y-105587540D01*
X143979760Y-99047540D02*
X143649760Y-99047540D01*
X143649760Y-99047540D02*
X143649760Y-105587540D01*
X143649760Y-105587540D02*
X143979760Y-105587540D01*
X146949220Y-106136180D02*
X147279220Y-106136180D01*
X146949220Y-99596180D02*
X146949220Y-106136180D01*
X147279220Y-99596180D02*
X146949220Y-99596180D01*
X149689220Y-106136180D02*
X149359220Y-106136180D01*
X149689220Y-99596180D02*
X149689220Y-106136180D01*
X149359220Y-99596180D02*
X149689220Y-99596180D01*
X153181920Y-99484420D02*
X153511920Y-99484420D01*
X153511920Y-99484420D02*
X153511920Y-106024420D01*
X153511920Y-106024420D02*
X153181920Y-106024420D01*
X151101920Y-99484420D02*
X150771920Y-99484420D01*
X150771920Y-99484420D02*
X150771920Y-106024420D01*
X150771920Y-106024420D02*
X151101920Y-106024420D01*
X154759720Y-106123480D02*
X155089720Y-106123480D01*
X154759720Y-99583480D02*
X154759720Y-106123480D01*
X155089720Y-99583480D02*
X154759720Y-99583480D01*
X157499720Y-106123480D02*
X157169720Y-106123480D01*
X157499720Y-99583480D02*
X157499720Y-106123480D01*
X157169720Y-99583480D02*
X157499720Y-99583480D01*
X160954320Y-99532680D02*
X161284320Y-99532680D01*
X161284320Y-99532680D02*
X161284320Y-106072680D01*
X161284320Y-106072680D02*
X160954320Y-106072680D01*
X158874320Y-99532680D02*
X158544320Y-99532680D01*
X158544320Y-99532680D02*
X158544320Y-106072680D01*
X158544320Y-106072680D02*
X158874320Y-106072680D01*
X162661660Y-105727240D02*
X162991660Y-105727240D01*
X162661660Y-99187240D02*
X162661660Y-105727240D01*
X162991660Y-99187240D02*
X162661660Y-99187240D01*
X165401660Y-105727240D02*
X165071660Y-105727240D01*
X165401660Y-99187240D02*
X165401660Y-105727240D01*
X165071660Y-99187240D02*
X165401660Y-99187240D01*
X169166140Y-99116120D02*
X169496140Y-99116120D01*
X169496140Y-99116120D02*
X169496140Y-105656120D01*
X169496140Y-105656120D02*
X169166140Y-105656120D01*
X167086140Y-99116120D02*
X166756140Y-99116120D01*
X166756140Y-99116120D02*
X166756140Y-105656120D01*
X166756140Y-105656120D02*
X167086140Y-105656120D01*
X170505180Y-105656120D02*
X170835180Y-105656120D01*
X170505180Y-99116120D02*
X170505180Y-105656120D01*
X170835180Y-99116120D02*
X170505180Y-99116120D01*
X173245180Y-105656120D02*
X172915180Y-105656120D01*
X173245180Y-99116120D02*
X173245180Y-105656120D01*
X172915180Y-99116120D02*
X173245180Y-99116120D01*
X176521980Y-99187240D02*
X176851980Y-99187240D01*
X176851980Y-99187240D02*
X176851980Y-105727240D01*
X176851980Y-105727240D02*
X176521980Y-105727240D01*
X174441980Y-99187240D02*
X174111980Y-99187240D01*
X174111980Y-99187240D02*
X174111980Y-105727240D01*
X174111980Y-105727240D02*
X174441980Y-105727240D01*
X177789900Y-106141260D02*
X178119900Y-106141260D01*
X177789900Y-99601260D02*
X177789900Y-106141260D01*
X178119900Y-99601260D02*
X177789900Y-99601260D01*
X180529900Y-106141260D02*
X180199900Y-106141260D01*
X180529900Y-99601260D02*
X180529900Y-106141260D01*
X180199900Y-99601260D02*
X180529900Y-99601260D01*
D12*
X171148681Y-110137179D02*
X171053443Y-110089560D01*
X170958205Y-109994321D01*
X170815348Y-109851464D01*
X170720110Y-109803845D01*
X170624872Y-109803845D01*
X170672491Y-110041940D02*
X170577253Y-109994321D01*
X170482015Y-109899083D01*
X170434396Y-109708607D01*
X170434396Y-109375274D01*
X170482015Y-109184798D01*
X170577253Y-109089560D01*
X170672491Y-109041940D01*
X170862967Y-109041940D01*
X170958205Y-109089560D01*
X171053443Y-109184798D01*
X171101062Y-109375274D01*
X171101062Y-109708607D01*
X171053443Y-109899083D01*
X170958205Y-109994321D01*
X170862967Y-110041940D01*
X170672491Y-110041940D01*
X172053443Y-110041940D02*
X171482015Y-110041940D01*
X171767729Y-110041940D02*
X171767729Y-109041940D01*
X171672491Y-109184798D01*
X171577253Y-109280036D01*
X171482015Y-109327655D01*
X141969446Y-89759880D02*
X141969446Y-90474166D01*
X141921827Y-90617023D01*
X141826589Y-90712261D01*
X141683732Y-90759880D01*
X141588494Y-90759880D01*
X142969446Y-90759880D02*
X142398018Y-90759880D01*
X142683732Y-90759880D02*
X142683732Y-89759880D01*
X142588494Y-89902738D01*
X142493256Y-89997976D01*
X142398018Y-90045595D01*
X117930571Y-103888714D02*
X117978190Y-103745857D01*
X118025809Y-103698238D01*
X118121047Y-103650619D01*
X118263904Y-103650619D01*
X118359142Y-103698238D01*
X118406761Y-103745857D01*
X118454380Y-103841095D01*
X118454380Y-104222047D01*
X117454380Y-104222047D01*
X117454380Y-103888714D01*
X117502000Y-103793476D01*
X117549619Y-103745857D01*
X117644857Y-103698238D01*
X117740095Y-103698238D01*
X117835333Y-103745857D01*
X117882952Y-103793476D01*
X117930571Y-103888714D01*
X117930571Y-104222047D01*
X117454380Y-103364904D02*
X117454380Y-102793476D01*
X118454380Y-103079190D02*
X117454380Y-103079190D01*
X118454380Y-101936333D02*
X118454380Y-102507761D01*
X118454380Y-102222047D02*
X117454380Y-102222047D01*
X117597238Y-102317285D01*
X117692476Y-102412523D01*
X117740095Y-102507761D01*
X121873428Y-106568952D02*
X121873428Y-105807047D01*
X122254380Y-106188000D02*
X121492476Y-106188000D01*
X131723904Y-108300380D02*
X131723904Y-107300380D01*
X131962000Y-107300380D01*
X132104857Y-107348000D01*
X132200095Y-107443238D01*
X132247714Y-107538476D01*
X132295333Y-107728952D01*
X132295333Y-107871809D01*
X132247714Y-108062285D01*
X132200095Y-108157523D01*
X132104857Y-108252761D01*
X131962000Y-108300380D01*
X131723904Y-108300380D01*
X132628666Y-107300380D02*
X133247714Y-107300380D01*
X132914380Y-107681333D01*
X133057238Y-107681333D01*
X133152476Y-107728952D01*
X133200095Y-107776571D01*
X133247714Y-107871809D01*
X133247714Y-108109904D01*
X133200095Y-108205142D01*
X133152476Y-108252761D01*
X133057238Y-108300380D01*
X132771523Y-108300380D01*
X132676285Y-108252761D01*
X132628666Y-108205142D01*
X141883904Y-108300380D02*
X141883904Y-107300380D01*
X142122000Y-107300380D01*
X142264857Y-107348000D01*
X142360095Y-107443238D01*
X142407714Y-107538476D01*
X142455333Y-107728952D01*
X142455333Y-107871809D01*
X142407714Y-108062285D01*
X142360095Y-108157523D01*
X142264857Y-108252761D01*
X142122000Y-108300380D01*
X141883904Y-108300380D01*
X143360095Y-107300380D02*
X142883904Y-107300380D01*
X142836285Y-107776571D01*
X142883904Y-107728952D01*
X142979142Y-107681333D01*
X143217238Y-107681333D01*
X143312476Y-107728952D01*
X143360095Y-107776571D01*
X143407714Y-107871809D01*
X143407714Y-108109904D01*
X143360095Y-108205142D01*
X143312476Y-108252761D01*
X143217238Y-108300380D01*
X142979142Y-108300380D01*
X142883904Y-108252761D01*
X142836285Y-108205142D01*
X152043904Y-108300380D02*
X152043904Y-107300380D01*
X152282000Y-107300380D01*
X152424857Y-107348000D01*
X152520095Y-107443238D01*
X152567714Y-107538476D01*
X152615333Y-107728952D01*
X152615333Y-107871809D01*
X152567714Y-108062285D01*
X152520095Y-108157523D01*
X152424857Y-108252761D01*
X152282000Y-108300380D01*
X152043904Y-108300380D01*
X152948666Y-107300380D02*
X153615333Y-107300380D01*
X153186761Y-108300380D01*
X162203904Y-108300380D02*
X162203904Y-107300380D01*
X162442000Y-107300380D01*
X162584857Y-107348000D01*
X162680095Y-107443238D01*
X162727714Y-107538476D01*
X162775333Y-107728952D01*
X162775333Y-107871809D01*
X162727714Y-108062285D01*
X162680095Y-108157523D01*
X162584857Y-108252761D01*
X162442000Y-108300380D01*
X162203904Y-108300380D01*
X163251523Y-108300380D02*
X163442000Y-108300380D01*
X163537238Y-108252761D01*
X163584857Y-108205142D01*
X163680095Y-108062285D01*
X163727714Y-107871809D01*
X163727714Y-107490857D01*
X163680095Y-107395619D01*
X163632476Y-107348000D01*
X163537238Y-107300380D01*
X163346761Y-107300380D01*
X163251523Y-107348000D01*
X163203904Y-107395619D01*
X163156285Y-107490857D01*
X163156285Y-107728952D01*
X163203904Y-107824190D01*
X163251523Y-107871809D01*
X163346761Y-107919428D01*
X163537238Y-107919428D01*
X163632476Y-107871809D01*
X163680095Y-107824190D01*
X163727714Y-107728952D01*
X129279820Y-103124286D02*
X128803630Y-103457620D01*
X129279820Y-103695715D02*
X128279820Y-103695715D01*
X128279820Y-103314762D01*
X128327440Y-103219524D01*
X128375059Y-103171905D01*
X128470297Y-103124286D01*
X128613154Y-103124286D01*
X128708392Y-103171905D01*
X128756011Y-103219524D01*
X128803630Y-103314762D01*
X128803630Y-103695715D01*
X129279820Y-102171905D02*
X129279820Y-102743334D01*
X129279820Y-102457620D02*
X128279820Y-102457620D01*
X128422678Y-102552858D01*
X128517916Y-102648096D01*
X128565535Y-102743334D01*
X132912020Y-103175086D02*
X132435830Y-103508420D01*
X132912020Y-103746515D02*
X131912020Y-103746515D01*
X131912020Y-103365562D01*
X131959640Y-103270324D01*
X132007259Y-103222705D01*
X132102497Y-103175086D01*
X132245354Y-103175086D01*
X132340592Y-103222705D01*
X132388211Y-103270324D01*
X132435830Y-103365562D01*
X132435830Y-103746515D01*
X132007259Y-102794134D02*
X131959640Y-102746515D01*
X131912020Y-102651277D01*
X131912020Y-102413181D01*
X131959640Y-102317943D01*
X132007259Y-102270324D01*
X132102497Y-102222705D01*
X132197735Y-102222705D01*
X132340592Y-102270324D01*
X132912020Y-102841753D01*
X132912020Y-102222705D01*
X136495960Y-103124286D02*
X136019770Y-103457620D01*
X136495960Y-103695715D02*
X135495960Y-103695715D01*
X135495960Y-103314762D01*
X135543580Y-103219524D01*
X135591199Y-103171905D01*
X135686437Y-103124286D01*
X135829294Y-103124286D01*
X135924532Y-103171905D01*
X135972151Y-103219524D01*
X136019770Y-103314762D01*
X136019770Y-103695715D01*
X135495960Y-102790953D02*
X135495960Y-102171905D01*
X135876913Y-102505239D01*
X135876913Y-102362381D01*
X135924532Y-102267143D01*
X135972151Y-102219524D01*
X136067389Y-102171905D01*
X136305484Y-102171905D01*
X136400722Y-102219524D01*
X136448341Y-102267143D01*
X136495960Y-102362381D01*
X136495960Y-102648096D01*
X136448341Y-102743334D01*
X136400722Y-102790953D01*
X140138320Y-102484206D02*
X139662130Y-102817540D01*
X140138320Y-103055635D02*
X139138320Y-103055635D01*
X139138320Y-102674682D01*
X139185940Y-102579444D01*
X139233559Y-102531825D01*
X139328797Y-102484206D01*
X139471654Y-102484206D01*
X139566892Y-102531825D01*
X139614511Y-102579444D01*
X139662130Y-102674682D01*
X139662130Y-103055635D01*
X139471654Y-101627063D02*
X140138320Y-101627063D01*
X139090701Y-101865159D02*
X139804987Y-102103254D01*
X139804987Y-101484206D01*
X144093100Y-102484206D02*
X143616910Y-102817540D01*
X144093100Y-103055635D02*
X143093100Y-103055635D01*
X143093100Y-102674682D01*
X143140720Y-102579444D01*
X143188339Y-102531825D01*
X143283577Y-102484206D01*
X143426434Y-102484206D01*
X143521672Y-102531825D01*
X143569291Y-102579444D01*
X143616910Y-102674682D01*
X143616910Y-103055635D01*
X143093100Y-101579444D02*
X143093100Y-102055635D01*
X143569291Y-102103254D01*
X143521672Y-102055635D01*
X143474053Y-101960397D01*
X143474053Y-101722301D01*
X143521672Y-101627063D01*
X143569291Y-101579444D01*
X143664529Y-101531825D01*
X143902624Y-101531825D01*
X143997862Y-101579444D01*
X144045481Y-101627063D01*
X144093100Y-101722301D01*
X144093100Y-101960397D01*
X144045481Y-102055635D01*
X143997862Y-102103254D01*
X147842140Y-102484206D02*
X147365950Y-102817540D01*
X147842140Y-103055635D02*
X146842140Y-103055635D01*
X146842140Y-102674682D01*
X146889760Y-102579444D01*
X146937379Y-102531825D01*
X147032617Y-102484206D01*
X147175474Y-102484206D01*
X147270712Y-102531825D01*
X147318331Y-102579444D01*
X147365950Y-102674682D01*
X147365950Y-103055635D01*
X146842140Y-101627063D02*
X146842140Y-101817540D01*
X146889760Y-101912778D01*
X146937379Y-101960397D01*
X147080236Y-102055635D01*
X147270712Y-102103254D01*
X147651664Y-102103254D01*
X147746902Y-102055635D01*
X147794521Y-102008016D01*
X147842140Y-101912778D01*
X147842140Y-101722301D01*
X147794521Y-101627063D01*
X147746902Y-101579444D01*
X147651664Y-101531825D01*
X147413569Y-101531825D01*
X147318331Y-101579444D01*
X147270712Y-101627063D01*
X147223093Y-101722301D01*
X147223093Y-101912778D01*
X147270712Y-102008016D01*
X147318331Y-102055635D01*
X147413569Y-102103254D01*
X151141600Y-103032846D02*
X150665410Y-103366180D01*
X151141600Y-103604275D02*
X150141600Y-103604275D01*
X150141600Y-103223322D01*
X150189220Y-103128084D01*
X150236839Y-103080465D01*
X150332077Y-103032846D01*
X150474934Y-103032846D01*
X150570172Y-103080465D01*
X150617791Y-103128084D01*
X150665410Y-103223322D01*
X150665410Y-103604275D01*
X150141600Y-102699513D02*
X150141600Y-102032846D01*
X151141600Y-102461418D01*
X154964300Y-102921086D02*
X154488110Y-103254420D01*
X154964300Y-103492515D02*
X153964300Y-103492515D01*
X153964300Y-103111562D01*
X154011920Y-103016324D01*
X154059539Y-102968705D01*
X154154777Y-102921086D01*
X154297634Y-102921086D01*
X154392872Y-102968705D01*
X154440491Y-103016324D01*
X154488110Y-103111562D01*
X154488110Y-103492515D01*
X154392872Y-102349658D02*
X154345253Y-102444896D01*
X154297634Y-102492515D01*
X154202396Y-102540134D01*
X154154777Y-102540134D01*
X154059539Y-102492515D01*
X154011920Y-102444896D01*
X153964300Y-102349658D01*
X153964300Y-102159181D01*
X154011920Y-102063943D01*
X154059539Y-102016324D01*
X154154777Y-101968705D01*
X154202396Y-101968705D01*
X154297634Y-102016324D01*
X154345253Y-102063943D01*
X154392872Y-102159181D01*
X154392872Y-102349658D01*
X154440491Y-102444896D01*
X154488110Y-102492515D01*
X154583348Y-102540134D01*
X154773824Y-102540134D01*
X154869062Y-102492515D01*
X154916681Y-102444896D01*
X154964300Y-102349658D01*
X154964300Y-102159181D01*
X154916681Y-102063943D01*
X154869062Y-102016324D01*
X154773824Y-101968705D01*
X154583348Y-101968705D01*
X154488110Y-102016324D01*
X154440491Y-102063943D01*
X154392872Y-102159181D01*
X158952100Y-103020146D02*
X158475910Y-103353480D01*
X158952100Y-103591575D02*
X157952100Y-103591575D01*
X157952100Y-103210622D01*
X157999720Y-103115384D01*
X158047339Y-103067765D01*
X158142577Y-103020146D01*
X158285434Y-103020146D01*
X158380672Y-103067765D01*
X158428291Y-103115384D01*
X158475910Y-103210622D01*
X158475910Y-103591575D01*
X158952100Y-102543956D02*
X158952100Y-102353480D01*
X158904481Y-102258241D01*
X158856862Y-102210622D01*
X158714005Y-102115384D01*
X158523529Y-102067765D01*
X158142577Y-102067765D01*
X158047339Y-102115384D01*
X157999720Y-102163003D01*
X157952100Y-102258241D01*
X157952100Y-102448718D01*
X157999720Y-102543956D01*
X158047339Y-102591575D01*
X158142577Y-102639194D01*
X158380672Y-102639194D01*
X158475910Y-102591575D01*
X158523529Y-102543956D01*
X158571148Y-102448718D01*
X158571148Y-102258241D01*
X158523529Y-102163003D01*
X158475910Y-102115384D01*
X158380672Y-102067765D01*
X162736700Y-103445537D02*
X162260510Y-103778870D01*
X162736700Y-104016965D02*
X161736700Y-104016965D01*
X161736700Y-103636013D01*
X161784320Y-103540775D01*
X161831939Y-103493156D01*
X161927177Y-103445537D01*
X162070034Y-103445537D01*
X162165272Y-103493156D01*
X162212891Y-103540775D01*
X162260510Y-103636013D01*
X162260510Y-104016965D01*
X162736700Y-102493156D02*
X162736700Y-103064584D01*
X162736700Y-102778870D02*
X161736700Y-102778870D01*
X161879558Y-102874108D01*
X161974796Y-102969346D01*
X162022415Y-103064584D01*
X161736700Y-101874108D02*
X161736700Y-101778870D01*
X161784320Y-101683632D01*
X161831939Y-101636013D01*
X161927177Y-101588394D01*
X162117653Y-101540775D01*
X162355748Y-101540775D01*
X162546224Y-101588394D01*
X162641462Y-101636013D01*
X162689081Y-101683632D01*
X162736700Y-101778870D01*
X162736700Y-101874108D01*
X162689081Y-101969346D01*
X162641462Y-102016965D01*
X162546224Y-102064584D01*
X162355748Y-102112203D01*
X162117653Y-102112203D01*
X161927177Y-102064584D01*
X161831939Y-102016965D01*
X161784320Y-101969346D01*
X161736700Y-101874108D01*
X166854040Y-103100097D02*
X166377850Y-103433430D01*
X166854040Y-103671525D02*
X165854040Y-103671525D01*
X165854040Y-103290573D01*
X165901660Y-103195335D01*
X165949279Y-103147716D01*
X166044517Y-103100097D01*
X166187374Y-103100097D01*
X166282612Y-103147716D01*
X166330231Y-103195335D01*
X166377850Y-103290573D01*
X166377850Y-103671525D01*
X166854040Y-102147716D02*
X166854040Y-102719144D01*
X166854040Y-102433430D02*
X165854040Y-102433430D01*
X165996898Y-102528668D01*
X166092136Y-102623906D01*
X166139755Y-102719144D01*
X166854040Y-101195335D02*
X166854040Y-101766763D01*
X166854040Y-101481049D02*
X165854040Y-101481049D01*
X165996898Y-101576287D01*
X166092136Y-101671525D01*
X166139755Y-101766763D01*
X170948520Y-103028977D02*
X170472330Y-103362310D01*
X170948520Y-103600405D02*
X169948520Y-103600405D01*
X169948520Y-103219453D01*
X169996140Y-103124215D01*
X170043759Y-103076596D01*
X170138997Y-103028977D01*
X170281854Y-103028977D01*
X170377092Y-103076596D01*
X170424711Y-103124215D01*
X170472330Y-103219453D01*
X170472330Y-103600405D01*
X170948520Y-102076596D02*
X170948520Y-102648024D01*
X170948520Y-102362310D02*
X169948520Y-102362310D01*
X170091378Y-102457548D01*
X170186616Y-102552786D01*
X170234235Y-102648024D01*
X170043759Y-101695643D02*
X169996140Y-101648024D01*
X169948520Y-101552786D01*
X169948520Y-101314691D01*
X169996140Y-101219453D01*
X170043759Y-101171834D01*
X170138997Y-101124215D01*
X170234235Y-101124215D01*
X170377092Y-101171834D01*
X170948520Y-101743262D01*
X170948520Y-101124215D01*
X174697560Y-103028977D02*
X174221370Y-103362310D01*
X174697560Y-103600405D02*
X173697560Y-103600405D01*
X173697560Y-103219453D01*
X173745180Y-103124215D01*
X173792799Y-103076596D01*
X173888037Y-103028977D01*
X174030894Y-103028977D01*
X174126132Y-103076596D01*
X174173751Y-103124215D01*
X174221370Y-103219453D01*
X174221370Y-103600405D01*
X174697560Y-102076596D02*
X174697560Y-102648024D01*
X174697560Y-102362310D02*
X173697560Y-102362310D01*
X173840418Y-102457548D01*
X173935656Y-102552786D01*
X173983275Y-102648024D01*
X173697560Y-101743262D02*
X173697560Y-101124215D01*
X174078513Y-101457548D01*
X174078513Y-101314691D01*
X174126132Y-101219453D01*
X174173751Y-101171834D01*
X174268989Y-101124215D01*
X174507084Y-101124215D01*
X174602322Y-101171834D01*
X174649941Y-101219453D01*
X174697560Y-101314691D01*
X174697560Y-101600405D01*
X174649941Y-101695643D01*
X174602322Y-101743262D01*
X178304360Y-103100097D02*
X177828170Y-103433430D01*
X178304360Y-103671525D02*
X177304360Y-103671525D01*
X177304360Y-103290573D01*
X177351980Y-103195335D01*
X177399599Y-103147716D01*
X177494837Y-103100097D01*
X177637694Y-103100097D01*
X177732932Y-103147716D01*
X177780551Y-103195335D01*
X177828170Y-103290573D01*
X177828170Y-103671525D01*
X178304360Y-102147716D02*
X178304360Y-102719144D01*
X178304360Y-102433430D02*
X177304360Y-102433430D01*
X177447218Y-102528668D01*
X177542456Y-102623906D01*
X177590075Y-102719144D01*
X177637694Y-101290573D02*
X178304360Y-101290573D01*
X177256741Y-101528668D02*
X177971027Y-101766763D01*
X177971027Y-101147716D01*
X181982280Y-103514117D02*
X181506090Y-103847450D01*
X181982280Y-104085545D02*
X180982280Y-104085545D01*
X180982280Y-103704593D01*
X181029900Y-103609355D01*
X181077519Y-103561736D01*
X181172757Y-103514117D01*
X181315614Y-103514117D01*
X181410852Y-103561736D01*
X181458471Y-103609355D01*
X181506090Y-103704593D01*
X181506090Y-104085545D01*
X181982280Y-102561736D02*
X181982280Y-103133164D01*
X181982280Y-102847450D02*
X180982280Y-102847450D01*
X181125138Y-102942688D01*
X181220376Y-103037926D01*
X181267995Y-103133164D01*
X180982280Y-101656974D02*
X180982280Y-102133164D01*
X181458471Y-102180783D01*
X181410852Y-102133164D01*
X181363233Y-102037926D01*
X181363233Y-101799831D01*
X181410852Y-101704593D01*
X181458471Y-101656974D01*
X181553709Y-101609355D01*
X181791804Y-101609355D01*
X181887042Y-101656974D01*
X181934661Y-101704593D01*
X181982280Y-101799831D01*
X181982280Y-102037926D01*
X181934661Y-102133164D01*
X181887042Y-102180783D01*
M02*
